<svg width="18" height="19" viewBox="0 0 18 19" fill="none" xmlns="http://www.w3.org/2000/svg">
<path d="M16.976 14.376C16.976 14.664 16.912 14.96 16.776 15.248C16.64 15.536 16.464 15.808 16.232 16.064C15.84 16.496 15.408 16.808 14.92 17.008C14.44 17.208 13.92 17.312 13.36 17.312C12.544 17.312 11.672 17.12 10.752 16.728C9.832 16.336 8.912 15.808 8 15.144C7.08 14.472 6.208 13.728 5.376 12.904C4.552 12.072 3.808 11.2 3.144 10.288C2.488 9.37601 1.96 8.46401 1.576 7.56001C1.192 6.64801 1 5.77601 1 4.94401C1 4.40001 1.096 3.88001 1.288 3.40001C1.48 2.91201 1.784 2.46401 2.208 2.06401C2.72 1.56001 3.28 1.31201 3.872 1.31201C4.096 1.31201 4.32 1.36001 4.52 1.45601C4.728 1.55201 4.912 1.69601 5.056 1.90401L6.912 4.52001C7.056 4.72001 7.16 4.90401 7.232 5.08001C7.304 5.24801 7.344 5.41601 7.344 5.56801C7.344 5.76001 7.288 5.95201 7.176 6.13601C7.072 6.32001 6.92 6.51201 6.728 6.70401L6.12 7.33601C6.032 7.42401 5.992 7.52801 5.992 7.65601C5.992 7.72001 6 7.77601 6.016 7.84001C6.04 7.90401 6.064 7.95201 6.08 8.00001C6.224 8.26401 6.472 8.60801 6.824 9.02401C7.184 9.44001 7.568 9.86401 7.984 10.288C8.416 10.712 8.832 11.104 9.256 11.464C9.672 11.816 10.016 12.056 10.288 12.2C10.328 12.216 10.376 12.24 10.432 12.264C10.496 12.288 10.56 12.296 10.632 12.296C10.768 12.296 10.872 12.248 10.96 12.16L11.568 11.56C11.768 11.36 11.96 11.208 12.144 11.112C12.328 11 12.512 10.944 12.712 10.944C12.864 10.944 13.024 10.976 13.2 11.048C13.376 11.12 13.56 11.224 13.76 11.36L16.408 13.24C16.616 13.384 16.76 13.552 16.848 13.752C16.928 13.952 16.976 14.152 16.976 14.376Z" stroke="white" stroke-width="1.5" stroke-miterlimit="10"/>
</svg>
