<svg width="60" height="60" viewBox="0 0 60 60" fill="none" xmlns="http://www.w3.org/2000/svg">
<path fill-rule="evenodd" clip-rule="evenodd" d="M47.3735 5.86158C47.3325 5.91267 47.2892 5.96246 47.2434 6.01081L37.7354 16.0587C37.0781 16.7533 36.0712 16.9913 35.1725 16.6645L10.2142 7.58875L6.16589 11.637L25.326 24.4105C25.9242 24.8092 26.312 25.4552 26.3829 26.1705C26.4537 26.8859 26.2001 27.5954 25.6917 28.1037L18.4932 35.3022C18.0432 35.7522 17.4329 36.005 16.7965 36.005H10.5919L6.8306 39.7663L15.7039 42.7594C16.4126 42.9985 16.9694 43.5545 17.2095 44.2629L20.2294 53.1737L23.995 49.4081V43.2035C23.995 42.5274 24.2802 41.8827 24.7805 41.428L32.0389 34.8294C32.5526 34.3624 33.2434 34.1407 33.9329 34.2217C34.6225 34.3027 35.2431 34.6784 35.6346 35.2517L48.3396 53.8574L52.4112 49.7858L43.3355 24.8275C43.0078 23.9263 43.2481 22.9165 43.9466 22.2595L53.9171 12.8825C54.7409 11.9945 55.201 10.8262 55.201 9.61048C55.201 8.3344 54.6941 7.11058 53.7917 6.20825C52.8894 5.30592 51.6656 4.799 50.3895 4.799C49.2874 4.799 48.2242 5.17714 47.3735 5.86158ZM57.5372 16.0348C59.1188 14.2753 60 11.9883 60 9.61048C60 7.06162 58.9875 4.61716 57.1852 2.81484C55.3828 1.01253 52.9384 0 50.3895 0C47.8407 0 45.3962 1.01253 43.5939 2.81484C43.46 2.94876 43.345 3.09486 43.2492 3.2497L35.3323 11.6162L10.4181 2.55645C9.54192 2.23786 8.56055 2.45557 7.90134 3.11478L0.702844 10.3133C0.194524 10.8216 -0.0591111 11.531 0.0117249 12.2464C0.082561 12.9618 0.470405 13.6077 1.06854 14.0065L20.2287 26.7799L15.8026 31.206H9.59804C8.96165 31.206 8.35133 31.4588 7.90134 31.9088L0.702844 39.1073C0.115887 39.6942 -0.126014 40.5429 0.063252 41.3511C0.252518 42.1593 0.846064 42.8123 1.6326 43.0776L13.0453 46.9274L16.9235 58.3706C17.1897 59.1562 17.8428 59.7486 18.6506 59.9371C19.4583 60.1257 20.3062 59.8837 20.8927 59.2972L28.0912 52.0987C28.5412 51.6487 28.794 51.0383 28.794 50.402V44.2649L33.2266 40.2353L46.0084 58.9536C46.4112 59.5434 47.0558 59.9231 47.7669 59.9896C48.478 60.056 49.1817 59.8022 49.6867 59.2972L56.8852 52.0987C57.5444 51.4394 57.7621 50.4581 57.4435 49.5819L48.3856 24.6727L56.9842 16.5859C57.0537 16.5304 57.1208 16.4705 57.1852 16.4061C57.1865 16.4048 57.1878 16.4035 57.189 16.4022L57.3651 16.2262C57.4265 16.1648 57.4839 16.1009 57.5372 16.0348Z" fill="white"/>
</svg>
