<svg width="66" height="64" viewBox="0 0 66 64" fill="none" xmlns="http://www.w3.org/2000/svg">
<path fill-rule="evenodd" clip-rule="evenodd" d="M0 61.9695C0 60.8649 0.89543 59.9695 2 59.9695H63.2009C64.3055 59.9695 65.2009 60.8649 65.2009 61.9695C65.2009 63.0741 64.3055 63.9695 63.2009 63.9695H2C0.89543 63.9695 0 63.0741 0 61.9695Z" fill="white"/>
<path fill-rule="evenodd" clip-rule="evenodd" d="M25.7018 4.69304C24.326 3.76899 22.5147 3.76899 21.1388 4.69304L21.1341 4.69623L8.8999 12.8625C8.89904 12.8631 8.89818 12.8636 8.89732 12.8642C7.75471 13.6341 7.06025 14.9153 7.06006 16.2823C7.06006 16.2821 7.06006 16.2824 7.06006 16.2823L7.08935 59.9966L39.8099 59.942L39.7806 16.2842L39.7806 16.2828C39.7806 14.8977 39.1025 13.6301 37.9546 12.8717L37.9468 12.8665L25.7066 4.69623L25.7018 4.69304ZM27.9294 1.37073C25.2059 -0.45695 21.6345 -0.456911 18.9111 1.37085C18.9102 1.3714 18.9094 1.37194 18.9086 1.37249L6.67319 9.53957L6.66719 9.54359C4.44544 11.0382 3.06006 13.5506 3.06006 16.2828L3.09069 62.0013C3.09105 62.532 3.30237 63.0409 3.67813 63.4158C4.05389 63.7907 4.56325 64.0008 5.09403 63.9999L41.8146 63.9387C42.9184 63.9368 43.812 63.0411 43.8112 61.9373L43.7806 16.2828C43.7806 16.2824 43.7806 16.2819 43.7806 16.2815C43.7802 13.5684 42.4404 11.0434 40.1641 9.53731C40.1626 9.53633 40.1611 9.53535 40.1596 9.53437L27.9321 1.37249C27.9312 1.3719 27.9303 1.37132 27.9294 1.37073Z" fill="white"/>
<path fill-rule="evenodd" clip-rule="evenodd" d="M57.0211 47.7292C58.1256 47.7292 59.0211 48.6247 59.0211 49.7292V62.0001C59.0211 63.1046 58.1256 64.0001 57.0211 64.0001C55.9165 64.0001 55.0211 63.1046 55.0211 62.0001V49.7292C55.0211 48.6247 55.9165 47.7292 57.0211 47.7292Z" fill="white"/>
<path fill-rule="evenodd" clip-rule="evenodd" d="M48.9608 37.489C48.9608 33.0184 52.6102 29.3689 57.0808 29.3689C61.5515 29.3689 65.2009 33.0184 65.2009 37.489V43.6091C65.2009 48.0797 61.5515 51.7292 57.0808 51.7292C52.6102 51.7292 48.9608 48.0797 48.9608 43.6091V37.489ZM57.0808 33.3689C54.8194 33.3689 52.9608 35.2275 52.9608 37.489V43.6091C52.9608 45.8706 54.8194 47.7292 57.0808 47.7292C59.3423 47.7292 61.2009 45.8706 61.2009 43.6091V37.489C61.2009 35.2275 59.3423 33.3689 57.0808 33.3689Z" fill="white"/>
<path fill-rule="evenodd" clip-rule="evenodd" d="M3.06006 37.489C3.06006 36.3844 3.95549 35.489 5.06006 35.489H41.7806C42.8852 35.489 43.7806 36.3844 43.7806 37.489C43.7806 38.5936 42.8852 39.489 41.7806 39.489H5.06006C3.95549 39.489 3.06006 38.5936 3.06006 37.489Z" fill="white"/>
<path fill-rule="evenodd" clip-rule="evenodd" d="M23.4203 48.4941C24.5249 48.4941 25.4203 49.3896 25.4203 50.4941V61.9693C25.4203 63.0739 24.5249 63.9693 23.4203 63.9693C22.3158 63.9693 21.4203 63.0739 21.4203 61.9693V50.4941C21.4203 49.3896 22.3158 48.4941 23.4203 48.4941Z" fill="white"/>
<path fill-rule="evenodd" clip-rule="evenodd" d="M23.4203 19.5986C21.9899 19.5986 20.8303 20.7582 20.8303 22.1887C20.8303 23.6192 21.9899 24.7788 23.4203 24.7788C24.8508 24.7788 26.0104 23.6192 26.0104 22.1887C26.0104 20.7582 24.8508 19.5986 23.4203 19.5986ZM16.8303 22.1887C16.8303 18.5491 19.7807 15.5986 23.4203 15.5986C27.0599 15.5986 30.0104 18.5491 30.0104 22.1887C30.0104 25.8283 27.0599 28.7788 23.4203 28.7788C19.7807 28.7788 16.8303 25.8283 16.8303 22.1887Z" fill="white"/>
</svg>
