<svg width="66" height="66" viewBox="0 0 66 66" fill="none" xmlns="http://www.w3.org/2000/svg">
<path fill-rule="evenodd" clip-rule="evenodd" d="M15.6642 25.4776C16.7699 25.1793 17.9233 25.7593 18.3433 26.8248C20.1347 31.3686 24.0294 34.9146 28.8359 36.2276C30.1767 36.5847 31.5784 36.8 33 36.8C34.4711 36.8 35.8485 36.6214 37.1035 36.2449C38.2195 35.9101 39.4064 36.4826 39.8391 37.5644C40.746 39.8315 41.2501 42.3652 41.2501 45C41.2501 50.9598 38.6627 56.361 34.5044 60.0731C30.898 63.3386 26.1641 65.25 20.9999 65.25C9.80722 65.25 0.75 56.1926 0.75 45C0.75 35.659 7.10569 27.7861 15.6642 25.4776ZM15.049 30.4242C9.32679 32.7505 5.25 38.4087 5.25 45C5.25 53.7074 12.2925 60.75 20.9999 60.75C25.0325 60.75 28.6963 59.2637 31.4891 56.7328L31.5024 56.7208C34.7401 53.8331 36.7501 49.637 36.7501 45C36.7501 43.625 36.5746 42.2939 36.2527 41.0462C35.1808 41.2211 34.0915 41.3 33 41.3C31.1238 41.3 29.3274 41.0159 27.6702 40.574L27.6579 40.5707L27.6579 40.5707C22.173 39.0748 17.6208 35.3302 15.049 30.4242Z" fill="white"/>
<path fill-rule="evenodd" clip-rule="evenodd" d="M33.0018 5.25C24.2945 5.25 17.252 12.2926 17.252 21C17.252 23.0618 17.6467 25.0347 18.3478 26.8316C20.1371 31.4138 24.0263 34.9154 28.8438 36.2293C28.862 36.2343 28.8802 36.2395 28.8983 36.2449C30.1534 36.6214 31.5307 36.8 33.0018 36.8C34.4235 36.8 35.8252 36.5847 37.1661 36.2276C41.9714 34.9149 45.8652 31.3704 47.6572 26.8282C48.3575 25.0322 48.7517 23.0605 48.7517 21C48.7517 12.2926 41.7092 5.25 33.0018 5.25ZM12.752 21C12.752 9.80737 21.8092 0.75 33.0018 0.75C44.1945 0.75 53.2517 9.80737 53.2517 21C53.2517 23.638 52.7465 26.165 51.8478 28.468L51.8449 28.4752C49.537 34.3294 44.5346 38.8824 38.3439 40.5707L38.3316 40.5741L38.3316 40.574C36.6744 41.016 34.878 41.3 33.0018 41.3C31.1825 41.3 29.3693 41.0809 27.6327 40.5633C21.4626 38.8714 16.4634 34.3775 14.1561 28.4684L14.1559 28.468C13.2572 26.165 12.752 23.638 12.752 21Z" fill="white"/>
<path fill-rule="evenodd" clip-rule="evenodd" d="M47.654 26.7815C48.0735 25.7072 49.2374 25.124 50.3491 25.4312C58.8935 27.7922 65.25 35.6564 65.25 45C65.25 56.1926 56.1928 65.25 45.0001 65.25C39.8174 65.25 35.0919 63.2761 31.5036 60.0802C31.0222 59.6515 30.7478 59.0368 30.75 58.3922C30.7522 57.7476 31.0308 57.1349 31.5151 56.7095C34.7359 53.8805 36.7501 49.6933 36.7501 45C36.7501 42.938 36.3553 40.965 35.654 39.1679C35.422 38.5735 35.4534 37.9085 35.7402 37.3385C36.0271 36.7685 36.5424 36.3471 37.158 36.1792C41.9756 34.8654 45.8647 31.3638 47.654 26.7815ZM50.9514 30.3869C48.7348 34.6382 45.0502 37.9719 40.5745 39.7706C41.0129 41.4373 41.2501 43.1926 41.2501 45C41.2501 50.032 39.4353 54.6472 36.3892 58.1708C38.8761 59.8006 41.8316 60.75 45.0001 60.75C53.7075 60.75 60.75 53.7073 60.75 45C60.75 38.4149 56.6787 32.7527 50.9514 30.3869Z" fill="white"/>
</svg>
