<svg width="72" height="60" viewBox="0 0 72 60" fill="none" xmlns="http://www.w3.org/2000/svg">
<path fill-rule="evenodd" clip-rule="evenodd" d="M0 28.7999C0 27.4744 1.07452 26.3999 2.4 26.3999H69.6C70.9255 26.3999 72 27.4744 72 28.7999C72 30.1254 70.9255 31.1999 69.6 31.1999H2.4C1.07452 31.1999 0 30.1254 0 28.7999Z" fill="white"/>
<path fill-rule="evenodd" clip-rule="evenodd" d="M52.8 45.6001C54.1255 45.6001 55.2 46.6746 55.2 48.0001L55.2 55.2001L62.4 55.2001V48.0001C62.4 46.6746 63.4745 45.6001 64.8 45.6001C66.1255 45.6001 67.2 46.6746 67.2 48.0001V55.2001C67.2 56.4731 66.6943 57.694 65.7941 58.5942C64.8939 59.4944 63.673 60.0001 62.4 60.0001H55.2C53.927 60.0001 52.7061 59.4944 51.8059 58.5942C50.9057 57.694 50.4 56.4731 50.4 55.2001V48.0001C50.4 46.6746 51.4745 45.6001 52.8 45.6001Z" fill="white"/>
<path fill-rule="evenodd" clip-rule="evenodd" d="M7.19999 45.6001C8.52547 45.6001 9.59999 46.6746 9.59999 48.0001V55.2001H16.8V48.0001C16.8 46.6746 17.8745 45.6001 19.2 45.6001C20.5255 45.6001 21.6 46.6746 21.6 48.0001V55.2001C21.6 56.4731 21.0943 57.694 20.1941 58.5942C19.2939 59.4944 18.073 60.0001 16.8 60.0001H9.59999C8.32695 60.0001 7.10605 59.4944 6.20588 58.5942C5.3057 57.694 4.79999 56.4731 4.79999 55.2001V48.0001C4.79999 46.6746 5.8745 45.6001 7.19999 45.6001Z" fill="white"/>
<path fill-rule="evenodd" clip-rule="evenodd" d="M14.4 38.4C14.4 37.0745 15.4745 36 16.8 36H21.6C22.9255 36 24 37.0745 24 38.4C24 39.7255 22.9255 40.8 21.6 40.8H16.8C15.4745 40.8 14.4 39.7255 14.4 38.4Z" fill="white"/>
<path fill-rule="evenodd" clip-rule="evenodd" d="M48 38.4C48 37.0745 49.0745 36 50.4 36H55.2C56.5255 36 57.6 37.0745 57.6 38.4C57.6 39.7255 56.5255 40.8 55.2 40.8H50.4C49.0745 40.8 48 39.7255 48 38.4Z" fill="white"/>
<path fill-rule="evenodd" clip-rule="evenodd" d="M15.7788 10.2434C16.5094 9.81984 17.3393 9.59787 18.1837 9.60011C18.1855 9.60012 18.1873 9.60012 18.189 9.60013L18.18 12.0001V9.60011H18.1837H53.8163C53.8145 9.60012 53.8127 9.60012 53.811 9.60013L53.82 12.0001V9.60011H53.8163M57.9772 12.0153C57.9768 12.0147 57.9765 12.0141 57.9761 12.0135L57.9772 12.0153ZM57.9772 12.0153L66.884 27.6098C67.0911 27.9723 67.2 28.3826 67.2 28.8001V48.0001C67.2 49.3256 66.1255 50.4001 64.8 50.4001H7.19999C5.8745 50.4001 4.79999 49.3256 4.79999 48.0001V28.8001C4.79999 28.3826 4.9089 27.9723 5.11596 27.6098L14.0228 12.0153C14.0235 12.0142 14.0241 12.0131 14.0248 12.0119C14.4425 11.2775 15.0478 10.6672 15.7788 10.2434M18.1885 14.4001L9.59999 29.4372V45.6001H62.4V29.4372L53.8115 14.4001H18.1885ZM53.8028 14.3849L53.8029 14.385L53.8028 14.3849Z" fill="white"/>
<path fill-rule="evenodd" clip-rule="evenodd" d="M26.4 2.4C26.4 1.07452 27.4745 0 28.8 0H43.2C44.5255 0 45.6 1.07452 45.6 2.4C45.6 3.72548 44.5255 4.8 43.2 4.8H28.8C27.4745 4.8 26.4 3.72548 26.4 2.4Z" fill="white"/>
</svg>
