<svg width="50" height="60" viewBox="0 0 50 60" fill="none" xmlns="http://www.w3.org/2000/svg">
<path fill-rule="evenodd" clip-rule="evenodd" d="M0 27.857C0 26.6735 0.959386 25.7141 2.14285 25.7141H47.1427C48.3261 25.7141 49.2855 26.6735 49.2855 27.857C49.2855 29.0404 48.3261 29.9998 47.1427 29.9998H2.14285C0.959386 29.9998 0 29.0404 0 27.857Z" fill="white"/>
<path fill-rule="evenodd" clip-rule="evenodd" d="M17.3572 47.5713C18.3039 48.2814 18.4958 49.6245 17.7857 50.5713L11.3572 59.1427C10.6471 60.0894 9.30397 60.2813 8.3572 59.5712C7.41043 58.8611 7.21856 57.518 7.92863 56.5712L14.3572 47.9998C15.0673 47.0531 16.4104 46.8612 17.3572 47.5713Z" fill="white"/>
<path fill-rule="evenodd" clip-rule="evenodd" d="M31.9286 47.5713C32.8753 46.8612 34.2185 47.0531 34.9285 47.9998L41.3571 56.5712C42.0672 57.518 41.8753 58.8611 40.9285 59.5712C39.9817 60.2813 38.6386 60.0894 37.9285 59.1427L31.5 50.5713C30.7899 49.6245 30.9818 48.2814 31.9286 47.5713Z" fill="white"/>
<path fill-rule="evenodd" clip-rule="evenodd" d="M8.57139 4.2857C6.20447 4.2857 4.2857 6.20447 4.2857 8.57139V42.857C4.2857 45.2239 6.20447 47.1427 8.57139 47.1427H40.7141C43.081 47.1427 44.9998 45.2239 44.9998 42.857V8.57139C44.9998 6.20447 43.081 4.2857 40.7141 4.2857H8.57139ZM0 8.57139C0 3.83754 3.83754 0 8.57139 0H40.7141C45.448 0 49.2855 3.83754 49.2855 8.57139V42.857C49.2855 47.5908 45.448 51.4284 40.7141 51.4284H8.57139C3.83754 51.4284 0 47.5908 0 42.857V8.57139Z" fill="white"/>
<path d="M12.8571 42.857C14.6323 42.857 16.0714 41.4179 16.0714 39.6427C16.0714 37.8675 14.6323 36.4285 12.8571 36.4285C11.0819 36.4285 9.64282 37.8675 9.64282 39.6427C9.64282 41.4179 11.0819 42.857 12.8571 42.857Z" fill="white"/>
<path d="M36.4284 42.857C38.2036 42.857 39.6427 41.4179 39.6427 39.6427C39.6427 37.8675 38.2036 36.4285 36.4284 36.4285C34.6533 36.4285 33.2142 37.8675 33.2142 39.6427C33.2142 41.4179 34.6533 42.857 36.4284 42.857Z" fill="white"/>
</svg>
